#define icon_width 16
#define icon_height 16
static unsigned char icon_bits[] = {
   0xff, 0xff, 0xff, 0xff, 0xff, 0xff, 0xff, 0xff, 0xa7, 0xe0, 0xa7, 0xe0,
   0xa7, 0xfc, 0xa7, 0xe0, 0xa7, 0xe0, 0xe7, 0xe7, 0x87, 0xe0, 0x87, 0xe0,
   0xff, 0xff, 0xff, 0xff, 0xff, 0xff, 0xff, 0xff };
